<?xml version="1.0" standalone="no"?>
<!DOCTYPE svg PUBLIC "-//W3C//DTD SVG 20010904//EN"
 "http://www.w3.org/TR/2001/REC-SVG-20010904/DTD/svg10.dtd">
<svg version="1.0" xmlns="http://www.w3.org/2000/svg"
 width="241.000000pt" height="241.000000pt" viewBox="0 0 241.000000 241.000000"
 preserveAspectRatio="xMidYMid meet">
<metadata>
Created by potrace 1.11, written by Peter Selinger 2001-2013
</metadata>
<g transform="translate(0.000000,241.000000) scale(0.100000,-0.100000)"
fill="#000000" stroke="none">
<path d="M1075 2400 c-276 -39 -457 -164 -570 -395 -44 -89 -85 -223 -85 -277
0 -28 -1 -28 -61 -28 -54 0 -64 -3 -90 -30 l-30 -29 3 -302 3 -301 24 -19 c17
-14 39 -19 82 -19 l59 0 0 -41 c0 -32 -6 -45 -29 -65 -116 -97 -2 -434 146
-434 23 0 37 -12 74 -63 62 -82 236 -274 285 -313 56 -44 91 -60 161 -74 86
-17 313 -8 376 15 74 27 238 185 375 363 47 60 61 72 86 72 64 0 129 68 167
174 36 105 21 238 -30 266 -17 8 -21 20 -21 55 l0 45 60 0 c104 0 100 -14 100
349 l0 310 -27 21 c-23 18 -38 21 -85 18 l-57 -3 -6 57 c-4 32 -21 100 -39
152 -86 249 -266 418 -508 476 -95 23 -275 33 -363 20z"/>
</g>
</svg>
